<?xml version="1.0" encoding="UTF-8"?>
<svg id="Layer_1" data-name="Layer 1" xmlns="http://www.w3.org/2000/svg" version="1.1" viewBox="0 0 292 69.9">
  <defs>
    <style>
      .cls-1 {
        fill: #000;
      }

      .cls-1, .cls-2 {
        stroke-width: 0px;
      }

      .cls-2 {
        fill: #ffed00;
      }
    </style>
  </defs>
  <rect class="cls-1" x="165.9" y="46.8" width="66.1" height=".9"/>
  <rect class="cls-1" x="5.2" y="46.8" width="66.1" height=".9"/>
  <path class="cls-1" d="M31.9,34.7v-7.1c0-2.4-.6-3.3-2.6-3.3h-3.3v-2.7h4.2c3.9,0,5.4,1.5,5.4,5.7v7.4h-3.6Z"/>
  <path class="cls-1" d="M40.7,29.4h-3.6v-7.8h3.6v7.8Z"/>
  <path class="cls-1" d="M48.2,21.6c3.6,0,5.2,1.4,5.2,5.4v2.3c0,4-1.6,5.4-5.2,5.4h-5.6v-2.7h4.9c1.8,0,2.3-.8,2.3-3v-1.6c0-2.2-.5-3-2.3-3h-1.5v4.3h-3.4v-7h5.6Z"/>
  <path class="cls-1" d="M66.6,27.8c0,5.3-2.3,6.9-6.8,6.9h-3.9l-1.4-13.1h12.1v6.1ZM63.1,24.4h-4.9l.8,7.6h.8c2.5,0,3.3-1,3.3-4.2v-3.4Z"/>
  <path class="cls-1" d="M80.6,21.6c3.8,0,5.3,1.5,5.3,5.5v7.5h-3.6v-7.2c0-2.3-.7-3.1-2.5-3.1h-1.5v10.3h-5.7v-2.7h2.3v-7.6h-1.6v-2.7h7.3Z"/>
  <path class="cls-1" d="M91.1,29.4h-3.6v-7.8h3.6v7.8Z"/>
  <path class="cls-1" d="M99.1,21.6c3.9,0,5.5,1.8,5.5,6.2v6.9h-6.4v-2.7h2.8v-4.1c0-2.5-.6-3.5-2.6-3.5h-.7l-1.7,10.3h-3.6l1.8-10.3h-1.7v-2.7h6.5Z"/>
  <path class="cls-1" d="M115.7,21.6v2.7h-1.4v10.3h-3.6v-10.3h-5.6v-2.7h10.5Z"/>
  <path class="cls-1" d="M128.4,21.6v7.5c0,4.1-1.7,5.6-5.2,5.6h-1.2v-2.7h.6c1.3,0,2.2-.4,2.2-2.8v-4.9h-8v-2.7h11.6ZM116.9,27.2h3.6v10.8h-3.6v-10.8Z"/>
  <path class="cls-1" d="M142.3,34.7h-3.6l-4.4-6.8c-.6.2-.8.7-.8,1.6v5.1h-3.5v-5.1c0-2,.9-3.5,2.9-3.9l-2.6-4h3.6l4,6.1c.6-.2.9-.7.9-1.6v-4.5h3.6v4.6c0,1.8-1.1,3.4-2.9,3.8l3,4.7Z"/>
  <path class="cls-1" d="M155,21.6v13.1h-3.6v-10.3h-7.8v-2.7h11.3ZM143.7,27.2h3.6v7.5h-3.6v-7.5Z"/>
  <path class="cls-1" d="M173.5,21.6v13.1h-3.6v-10.3h-7.8v-2.7h11.3ZM162.2,27.2h3.6v7.5h-3.6v-7.5Z"/>
  <path class="cls-1" d="M177,34.7l3.6-10.3h-5.9v-4.9h3.4v2.2h7.1l-4.4,13.1h-3.8Z"/>
  <path class="cls-1" d="M187.7,34.7l3.6-10.3h-5.9v-4.9h3.4v2.2h7.1l-4.4,13.1h-3.8Z"/>
  <path class="cls-1" d="M200.2,21.6c4.1,0,5.4,1.6,5.4,5.9v1.2c0,4.3-1.4,5.9-5.4,5.9h-3.9v-2.7h3c2.2,0,2.8-1,2.8-3.4v-.8c0-2.4-.6-3.4-2.8-3.4h-3v-2.8h3.9Z"/>
  <path class="cls-1" d="M213.4,21.6c3.9,0,5.5,1.8,5.5,6.2v6.9h-6.4v-2.7h2.8v-4.1c0-2.5-.6-3.5-2.6-3.5h-.7l-1.7,10.3h-3.6l1.8-10.3h-1.7v-2.7h6.5Z"/>
  <path class="cls-1" d="M231.8,21.6v13.1h-3.6v-10.3h-7.8v-2.7h11.3ZM220.5,27.2h3.6v7.5h-3.6v-7.5Z"/>
  <path class="cls-1" d="M75.8,47.8h2.3c-.1,1.4.4,2,1.8,2s1.7-.3,1.7-1-.3-1-2-1.6c-3.2-1.1-3.7-2-3.7-3.5s1.3-2.6,4.1-2.6,4.1,1.4,4,3.5h-2.3c.1-.8-.4-1.5-1.2-1.6-.1,0-.3,0-.4,0-1.1,0-1.6.3-1.6.9s.3.8,1.9,1.3c3.2,1,3.8,1.9,3.8,3.6s-1.5,2.8-4.2,2.8c-2.6,0-4.3-.9-4-3.8Z"/>
  <path class="cls-1" d="M91.4,46.5v5.1h-2.2v-.8c-.5.6-1.3.9-2.1.8-1.3.1-2.4-.8-2.5-2.1,0,0,0-.2,0-.3,0-1.8,1.4-2.9,4.7-3,0-.8-.5-1-1.3-1-.8,0-1.7.2-2.5.4l-.4-1.6c1.1-.3,2.2-.5,3.3-.6,2.1,0,3,.8,3,3ZM89.1,48.4v-.7c-2,.2-2.4.7-2.4,1.3s.3.9,1.1.9c.7,0,1.3-.5,1.3-1.2,0,0,0-.2,0-.2Z"/>
  <path class="cls-1" d="M100,47.5c0,2.7-1.1,4.1-3.3,4.1-.7,0-1.4-.2-2-.7v3.5h-2.3v-10.9h2.3v.6c.6-.5,1.3-.7,2-.7,2.3,0,3.3,1.4,3.3,4.1ZM97.7,47.5c0-1.7-.5-2.5-1.5-2.5s-1.6.8-1.6,2.5.5,2.5,1.6,2.5,1.5-.8,1.5-2.5h0Z"/>
  <path class="cls-1" d="M103,42.7h-2.3v-1.8h2.3v1.8ZM103,43.5v8h-2.3v-8h2.3Z"/>
  <path class="cls-1" d="M104.1,51.5v-8h2.2v1.6h0c.3-1.1,1.5-1.8,2.7-1.6h.3v2.2h-.3c-1.5,0-2.5.4-2.5,2.3v3.5h-2.4Z"/>
  <path class="cls-1" d="M112.9,47.3v-1.8c0-3.1,1.3-4.3,4.3-4.3s4.3,1.2,4.3,4h-2.5c0-1.5-.6-2.1-1.8-2.1s-1.9.6-1.9,2.2v2.2c0,1.6.6,2.3,1.9,2.3s1.8-.6,1.8-2.2h2.4c0,2.7-1.3,4-4.3,4s-4.3-1.3-4.3-4.4Z"/>
  <path class="cls-1" d="M122,47.5c0-2.7,1.3-4.1,3.9-4.1s3.9,1.4,3.9,4.1-1.3,4.1-3.9,4.1-3.9-1.4-3.9-4.1ZM127.4,47.5c0-1.7-.5-2.5-1.5-2.5s-1.6.8-1.6,2.5.5,2.5,1.6,2.5,1.5-.8,1.5-2.5h0Z"/>
  <path class="cls-1" d="M132.8,51.5c-1.7,0-2.3-.3-2.3-2v-8.9h2.3v8.6c0,.5.2.6.6.6h.6v1.7h-1.2Z"/>
  <path class="cls-1" d="M136.7,51.5c-1.7,0-2.3-.3-2.3-2v-8.9h2.3v8.6c0,.5.2.6.6.6h.6v1.7h-1.2Z"/>
  <path class="cls-1" d="M145.4,48.2h-5c.1,1.3.6,1.8,1.4,1.8.6,0,1.1-.4,1.3-1h2.3c-.2,1.6-1.4,2.7-3.6,2.7s-3.8-1.4-3.8-4.1,1.3-4.1,3.8-4.1,3.9,1.5,3.7,4.7ZM140.4,46.8h2.7c0-1.2-.6-1.7-1.4-1.7s-1.3.5-1.4,1.7h0Z"/>
  <path class="cls-1" d="M151.3,43.5h2.3v7.5c0,2.5-1.2,3.5-3.6,3.5-1.1,0-2.2-.2-3.3-.7l.6-1.5c.8.3,1.6.5,2.4.5,1.1,0,1.6-.3,1.6-1.8v-.3c-.5.5-1.2.7-1.9.7-2.4,0-3.4-1.4-3.4-4s1.1-4,3.3-4c.7,0,1.4.2,2,.7v-.6ZM151.4,47.4c0-1.6-.5-2.4-1.6-2.4s-1.6.8-1.6,2.4.5,2.4,1.6,2.4,1.6-.8,1.6-2.4Z"/>
  <path class="cls-1" d="M161.7,48.2h-5c.1,1.3.6,1.8,1.4,1.8.6,0,1.2-.4,1.3-1h2.3c-.2,1.6-1.4,2.7-3.6,2.7s-3.8-1.4-3.8-4.1,1.3-4.1,3.8-4.1,3.8,1.6,3.6,4.8ZM156.7,46.8h2.7c0-1.2-.6-1.7-1.4-1.7s-1.3.5-1.4,1.7h0Z"/>
  <path class="cls-2" d="M285.1,16.9c-3.2-4.5-7.8-4.6-13.3-5.9l-19.3-4.4-7.4-4.8c-.1,0-3-2.1-7.2,3.4-4.2,5.5-1.6,7.7-1.5,7.7l7.2,4.4-3.2,4.2c-.5.8-.9,1.7-1.2,2.7-.1.6-.3,1.2-.3,1.5l-5.2,33.9c-.3,1.8.2,3.7,1.3,5.2.4.6,4.6,2.1,5.1,2.1,5.5,2.2,19.6,1.4,27.1-1.7,18.2-7.5,24.4-39.1,18.1-48.2M272.1,40.7c-3.3,10-15.8,16.5-23.3,14.7l4.7-34.1,14.5,3.3c7.9,1.8,6.3,9.6,4.2,16.1"/>
</svg>