<svg xmlns="http://www.w3.org/2000/svg" viewBox="0 0 1200 800">
  <defs>
    <filter id="glow" x="-20%" y="-20%" width="140%" height="140%">
      <feGaussianBlur stdDeviation="2" result="blur"/>
      <feMerge>
        <feMergeNode in="blur"/>
        <feMergeNode in="SourceGraphic"/>
      </feMerge>
    </filter>
    <linearGradient id="arrowDownGold" x1="0%" y1="0%" x2="0%" y2="100%">
      <stop offset="0%" stop-color="#c9a84c" stop-opacity="0.8"/>
      <stop offset="100%" stop-color="#c9a84c" stop-opacity="0.3"/>
    </linearGradient>
    <linearGradient id="arrowDownCyan" x1="0%" y1="0%" x2="0%" y2="100%">
      <stop offset="0%" stop-color="#4fc3f7" stop-opacity="0.8"/>
      <stop offset="100%" stop-color="#4fc3f7" stop-opacity="0.3"/>
    </linearGradient>
  </defs>

  <!-- Background -->
  <rect width="1200" height="800" fill="#0a1628"/>

  <!-- Subtle grid -->
  <g opacity="0.03" stroke="#4fc3f7">
    <line x1="0" y1="200" x2="1200" y2="200" stroke-width="0.5"/>
    <line x1="0" y1="400" x2="1200" y2="400" stroke-width="0.5"/>
    <line x1="0" y1="600" x2="1200" y2="600" stroke-width="0.5"/>
    <line x1="300" y1="0" x2="300" y2="800" stroke-width="0.5"/>
    <line x1="600" y1="0" x2="600" y2="800" stroke-width="0.5"/>
    <line x1="900" y1="0" x2="900" y2="800" stroke-width="0.5"/>
  </g>

  <!-- Title -->
  <text x="600" y="55" text-anchor="middle" fill="#c9a84c" font-family="'Helvetica Neue', Arial, sans-serif" font-size="22" font-weight="600" letter-spacing="5">DUAL-PILLAR INTELLIGENCE ARCHITECTURE</text>
  <line x1="200" y1="72" x2="1000" y2="72" stroke="#c9a84c" stroke-width="0.5" opacity="0.2"/>

  <!-- ============================================= -->
  <!-- PILLAR 1: HUMINT (Left) -->
  <!-- ============================================= -->
  <rect x="60" y="100" width="500" height="440" fill="none" stroke="#c9a84c" stroke-width="1.5"/>
  <!-- Corner accents -->
  <line x1="60" y1="100" x2="90" y2="100" stroke="#c9a84c" stroke-width="3"/>
  <line x1="60" y1="100" x2="60" y2="130" stroke="#c9a84c" stroke-width="3"/>
  <line x1="560" y1="100" x2="530" y2="100" stroke="#c9a84c" stroke-width="3"/>
  <line x1="560" y1="100" x2="560" y2="130" stroke="#c9a84c" stroke-width="3"/>
  <line x1="60" y1="540" x2="90" y2="540" stroke="#c9a84c" stroke-width="3"/>
  <line x1="60" y1="540" x2="60" y2="510" stroke="#c9a84c" stroke-width="3"/>
  <line x1="560" y1="540" x2="530" y2="540" stroke="#c9a84c" stroke-width="3"/>
  <line x1="560" y1="540" x2="560" y2="510" stroke="#c9a84c" stroke-width="3"/>

  <!-- Pillar 1 Header -->
  <text x="310" y="140" text-anchor="middle" fill="#c9a84c" font-family="'Helvetica Neue', Arial, sans-serif" font-size="20" font-weight="700" letter-spacing="3">PILLAR 1 -- HUMINT</text>
  <text x="310" y="162" text-anchor="middle" fill="#8a9bb5" font-family="'Helvetica Neue', Arial, sans-serif" font-size="12" letter-spacing="2">Human Intelligence Network</text>
  <line x1="100" y1="178" x2="520" y2="178" stroke="#c9a84c" stroke-width="0.5" opacity="0.2"/>

  <!-- HUMINT item 1: Trusted Agents -->
  <rect x="95" y="200" width="430" height="48" fill="none" stroke="#c9a84c" stroke-width="0.8" opacity="0.5"/>
  <line x1="95" y1="200" x2="108" y2="200" stroke="#c9a84c" stroke-width="2"/>
  <line x1="95" y1="200" x2="95" y2="213" stroke="#c9a84c" stroke-width="2"/>
  <circle cx="125" cy="224" r="8" fill="none" stroke="#c9a84c" stroke-width="1" opacity="0.4"/>
  <circle cx="125" cy="224" r="3" fill="#c9a84c" opacity="0.3"/>
  <text x="148" y="220" fill="#e4e4e4" font-family="'Helvetica Neue', Arial, sans-serif" font-size="15" font-weight="600">Trusted Agents</text>
  <text x="148" y="238" fill="#8a9bb5" font-family="'Helvetica Neue', Arial, sans-serif" font-size="11">On-ground operatives across corridor nations</text>

  <!-- HUMINT item 2: Regulatory Networks -->
  <rect x="95" y="260" width="430" height="48" fill="none" stroke="#c9a84c" stroke-width="0.8" opacity="0.5"/>
  <line x1="95" y1="260" x2="108" y2="260" stroke="#c9a84c" stroke-width="2"/>
  <line x1="95" y1="260" x2="95" y2="273" stroke="#c9a84c" stroke-width="2"/>
  <circle cx="125" cy="284" r="8" fill="none" stroke="#c9a84c" stroke-width="1" opacity="0.4"/>
  <circle cx="125" cy="284" r="3" fill="#c9a84c" opacity="0.3"/>
  <text x="148" y="280" fill="#e4e4e4" font-family="'Helvetica Neue', Arial, sans-serif" font-size="15" font-weight="600">Regulatory Networks</text>
  <text x="148" y="298" fill="#8a9bb5" font-family="'Helvetica Neue', Arial, sans-serif" font-size="11">Government &amp; institutional relationships</text>

  <!-- HUMINT item 3: Operator Intel -->
  <rect x="95" y="320" width="430" height="48" fill="none" stroke="#c9a84c" stroke-width="0.8" opacity="0.5"/>
  <line x1="95" y1="320" x2="108" y2="320" stroke="#c9a84c" stroke-width="2"/>
  <line x1="95" y1="320" x2="95" y2="333" stroke="#c9a84c" stroke-width="2"/>
  <circle cx="125" cy="344" r="8" fill="none" stroke="#c9a84c" stroke-width="1" opacity="0.4"/>
  <circle cx="125" cy="344" r="3" fill="#c9a84c" opacity="0.3"/>
  <text x="148" y="340" fill="#e4e4e4" font-family="'Helvetica Neue', Arial, sans-serif" font-size="15" font-weight="600">Operator Intel</text>
  <text x="148" y="358" fill="#8a9bb5" font-family="'Helvetica Neue', Arial, sans-serif" font-size="11">Industry insiders &amp; infrastructure operators</text>

  <!-- HUMINT item 4: Financial Signals -->
  <rect x="95" y="380" width="430" height="48" fill="none" stroke="#c9a84c" stroke-width="0.8" opacity="0.5"/>
  <line x1="95" y1="380" x2="108" y2="380" stroke="#c9a84c" stroke-width="2"/>
  <line x1="95" y1="380" x2="95" y2="393" stroke="#c9a84c" stroke-width="2"/>
  <circle cx="125" cy="404" r="8" fill="none" stroke="#c9a84c" stroke-width="1" opacity="0.4"/>
  <circle cx="125" cy="404" r="3" fill="#c9a84c" opacity="0.3"/>
  <text x="148" y="400" fill="#e4e4e4" font-family="'Helvetica Neue', Arial, sans-serif" font-size="15" font-weight="600">Financial Signals</text>
  <text x="148" y="418" fill="#8a9bb5" font-family="'Helvetica Neue', Arial, sans-serif" font-size="11">Capital flow intelligence from banking contacts</text>

  <!-- HUMINT item 5: Non-Public Channels -->
  <rect x="95" y="440" width="430" height="48" fill="none" stroke="#c9a84c" stroke-width="0.8" opacity="0.5"/>
  <line x1="95" y1="440" x2="108" y2="440" stroke="#c9a84c" stroke-width="2"/>
  <line x1="95" y1="440" x2="95" y2="453" stroke="#c9a84c" stroke-width="2"/>
  <circle cx="125" cy="464" r="8" fill="none" stroke="#c9a84c" stroke-width="1" opacity="0.4"/>
  <circle cx="125" cy="464" r="3" fill="#c9a84c" opacity="0.3"/>
  <text x="148" y="460" fill="#e4e4e4" font-family="'Helvetica Neue', Arial, sans-serif" font-size="15" font-weight="600">Non-Public Channels</text>
  <text x="148" y="478" fill="#8a9bb5" font-family="'Helvetica Neue', Arial, sans-serif" font-size="11">Back-channel diplomatic &amp; commercial intel</text>

  <!-- ============================================= -->
  <!-- PILLAR 2: SIGINT (Right) -->
  <!-- ============================================= -->
  <rect x="640" y="100" width="500" height="440" fill="none" stroke="#4fc3f7" stroke-width="1.5"/>
  <!-- Corner accents -->
  <line x1="640" y1="100" x2="670" y2="100" stroke="#4fc3f7" stroke-width="3"/>
  <line x1="640" y1="100" x2="640" y2="130" stroke="#4fc3f7" stroke-width="3"/>
  <line x1="1140" y1="100" x2="1110" y2="100" stroke="#4fc3f7" stroke-width="3"/>
  <line x1="1140" y1="100" x2="1140" y2="130" stroke="#4fc3f7" stroke-width="3"/>
  <line x1="640" y1="540" x2="670" y2="540" stroke="#4fc3f7" stroke-width="3"/>
  <line x1="640" y1="540" x2="640" y2="510" stroke="#4fc3f7" stroke-width="3"/>
  <line x1="1140" y1="540" x2="1110" y2="540" stroke="#4fc3f7" stroke-width="3"/>
  <line x1="1140" y1="540" x2="1140" y2="510" stroke="#4fc3f7" stroke-width="3"/>

  <!-- Pillar 2 Header -->
  <text x="890" y="140" text-anchor="middle" fill="#4fc3f7" font-family="'Helvetica Neue', Arial, sans-serif" font-size="20" font-weight="700" letter-spacing="3">PILLAR 2 -- SIGINT</text>
  <text x="890" y="162" text-anchor="middle" fill="#8a9bb5" font-family="'Helvetica Neue', Arial, sans-serif" font-size="12" letter-spacing="2">Signals Intelligence Platform</text>
  <line x1="680" y1="178" x2="1100" y2="178" stroke="#4fc3f7" stroke-width="0.5" opacity="0.2"/>

  <!-- SIGINT item 1: AI Agents 24/7 -->
  <rect x="675" y="200" width="430" height="48" fill="none" stroke="#4fc3f7" stroke-width="0.8" opacity="0.5"/>
  <line x1="675" y1="200" x2="688" y2="200" stroke="#4fc3f7" stroke-width="2"/>
  <line x1="675" y1="200" x2="675" y2="213" stroke="#4fc3f7" stroke-width="2"/>
  <circle cx="705" cy="224" r="8" fill="none" stroke="#4fc3f7" stroke-width="1" opacity="0.4"/>
  <circle cx="705" cy="224" r="3" fill="#4fc3f7" opacity="0.3"/>
  <text x="728" y="220" fill="#e4e4e4" font-family="'Helvetica Neue', Arial, sans-serif" font-size="15" font-weight="600">AI Agents 24/7</text>
  <text x="728" y="238" fill="#8a9bb5" font-family="'Helvetica Neue', Arial, sans-serif" font-size="11">Autonomous monitoring across all data sources</text>

  <!-- SIGINT item 2: Regulatory Scanning -->
  <rect x="675" y="260" width="430" height="48" fill="none" stroke="#4fc3f7" stroke-width="0.8" opacity="0.5"/>
  <line x1="675" y1="260" x2="688" y2="260" stroke="#4fc3f7" stroke-width="2"/>
  <line x1="675" y1="260" x2="675" y2="273" stroke="#4fc3f7" stroke-width="2"/>
  <circle cx="705" cy="284" r="8" fill="none" stroke="#4fc3f7" stroke-width="1" opacity="0.4"/>
  <circle cx="705" cy="284" r="3" fill="#4fc3f7" opacity="0.3"/>
  <text x="728" y="280" fill="#e4e4e4" font-family="'Helvetica Neue', Arial, sans-serif" font-size="15" font-weight="600">Regulatory Scanning</text>
  <text x="728" y="298" fill="#8a9bb5" font-family="'Helvetica Neue', Arial, sans-serif" font-size="11">Real-time policy &amp; regulatory change detection</text>

  <!-- SIGINT item 3: Geopolitical Detection -->
  <rect x="675" y="320" width="430" height="48" fill="none" stroke="#4fc3f7" stroke-width="0.8" opacity="0.5"/>
  <line x1="675" y1="320" x2="688" y2="320" stroke="#4fc3f7" stroke-width="2"/>
  <line x1="675" y1="320" x2="675" y2="333" stroke="#4fc3f7" stroke-width="2"/>
  <circle cx="705" cy="344" r="8" fill="none" stroke="#4fc3f7" stroke-width="1" opacity="0.4"/>
  <circle cx="705" cy="344" r="3" fill="#4fc3f7" opacity="0.3"/>
  <text x="728" y="340" fill="#e4e4e4" font-family="'Helvetica Neue', Arial, sans-serif" font-size="15" font-weight="600">Geopolitical Detection</text>
  <text x="728" y="358" fill="#8a9bb5" font-family="'Helvetica Neue', Arial, sans-serif" font-size="11">Risk event identification &amp; impact modeling</text>

  <!-- SIGINT item 4: Capital Flow Tracking -->
  <rect x="675" y="380" width="430" height="48" fill="none" stroke="#4fc3f7" stroke-width="0.8" opacity="0.5"/>
  <line x1="675" y1="380" x2="688" y2="380" stroke="#4fc3f7" stroke-width="2"/>
  <line x1="675" y1="380" x2="675" y2="393" stroke="#4fc3f7" stroke-width="2"/>
  <circle cx="705" cy="404" r="8" fill="none" stroke="#4fc3f7" stroke-width="1" opacity="0.4"/>
  <circle cx="705" cy="404" r="3" fill="#4fc3f7" opacity="0.3"/>
  <text x="728" y="400" fill="#e4e4e4" font-family="'Helvetica Neue', Arial, sans-serif" font-size="15" font-weight="600">Capital Flow Tracking</text>
  <text x="728" y="418" fill="#8a9bb5" font-family="'Helvetica Neue', Arial, sans-serif" font-size="11">Investment movement analysis &amp; pattern recognition</text>

  <!-- SIGINT item 5: Cross-Referencing -->
  <rect x="675" y="440" width="430" height="48" fill="none" stroke="#4fc3f7" stroke-width="0.8" opacity="0.5"/>
  <line x1="675" y1="440" x2="688" y2="440" stroke="#4fc3f7" stroke-width="2"/>
  <line x1="675" y1="440" x2="675" y2="453" stroke="#4fc3f7" stroke-width="2"/>
  <circle cx="705" cy="464" r="8" fill="none" stroke="#4fc3f7" stroke-width="1" opacity="0.4"/>
  <circle cx="705" cy="464" r="3" fill="#4fc3f7" opacity="0.3"/>
  <text x="728" y="460" fill="#e4e4e4" font-family="'Helvetica Neue', Arial, sans-serif" font-size="15" font-weight="600">Cross-Referencing</text>
  <text x="728" y="478" fill="#8a9bb5" font-family="'Helvetica Neue', Arial, sans-serif" font-size="11">Multi-source validation &amp; contradiction detection</text>

  <!-- ============================================= -->
  <!-- DOWNWARD ARROWS FROM PILLARS -->
  <!-- ============================================= -->
  <!-- Left pillar arrow -->
  <line x1="310" y1="540" x2="310" y2="610" stroke="url(#arrowDownGold)" stroke-width="2"/>
  <line x1="310" y1="540" x2="310" y2="610" stroke="#c9a84c" stroke-width="0.5" stroke-dasharray="4,6" opacity="0.5"/>
  <polygon points="310,618 300,605 320,605" fill="#c9a84c" opacity="0.7"/>
  <!-- Flow dots -->
  <circle cx="310" cy="555" r="2" fill="#c9a84c" opacity="0.6"/>
  <circle cx="310" cy="575" r="2.5" fill="#c9a84c" opacity="0.5"/>
  <circle cx="310" cy="595" r="2" fill="#c9a84c" opacity="0.3"/>

  <!-- Right pillar arrow -->
  <line x1="890" y1="540" x2="890" y2="610" stroke="url(#arrowDownCyan)" stroke-width="2"/>
  <line x1="890" y1="540" x2="890" y2="610" stroke="#4fc3f7" stroke-width="0.5" stroke-dasharray="4,6" opacity="0.5"/>
  <polygon points="890,618 880,605 900,605" fill="#4fc3f7" opacity="0.7"/>
  <circle cx="890" cy="555" r="2" fill="#4fc3f7" opacity="0.6"/>
  <circle cx="890" cy="575" r="2.5" fill="#4fc3f7" opacity="0.5"/>
  <circle cx="890" cy="595" r="2" fill="#4fc3f7" opacity="0.3"/>

  <!-- Converging lines to center box -->
  <line x1="310" y1="618" x2="450" y2="640" stroke="#c9a84c" stroke-width="1" opacity="0.4"/>
  <line x1="890" y1="618" x2="750" y2="640" stroke="#4fc3f7" stroke-width="1" opacity="0.4"/>

  <!-- ============================================= -->
  <!-- UNIFIED DATA INFRASTRUCTURE -->
  <!-- ============================================= -->
  <rect x="250" y="630" width="700" height="60" fill="none" stroke="#c9a84c" stroke-width="1.5"/>
  <!-- Corner accents -->
  <line x1="250" y1="630" x2="275" y2="630" stroke="#c9a84c" stroke-width="3"/>
  <line x1="250" y1="630" x2="250" y2="655" stroke="#c9a84c" stroke-width="3"/>
  <line x1="950" y1="630" x2="925" y2="630" stroke="#c9a84c" stroke-width="3"/>
  <line x1="950" y1="630" x2="950" y2="655" stroke="#c9a84c" stroke-width="3"/>
  <line x1="250" y1="690" x2="275" y2="690" stroke="#c9a84c" stroke-width="3"/>
  <line x1="250" y1="690" x2="250" y2="665" stroke="#c9a84c" stroke-width="3"/>
  <line x1="950" y1="690" x2="925" y2="690" stroke="#c9a84c" stroke-width="3"/>
  <line x1="950" y1="690" x2="950" y2="665" stroke="#c9a84c" stroke-width="3"/>

  <!-- Inner accent line -->
  <line x1="268" y1="648" x2="268" y2="672" stroke="#c9a84c" stroke-width="2" opacity="0.4"/>
  <line x1="932" y1="648" x2="932" y2="672" stroke="#4fc3f7" stroke-width="2" opacity="0.4"/>

  <text x="600" y="667" text-anchor="middle" fill="#e4e4e4" font-family="'Helvetica Neue', Arial, sans-serif" font-size="18" font-weight="700" letter-spacing="3">UNIFIED DATA INFRASTRUCTURE</text>

  <!-- ============================================= -->
  <!-- ARROW DOWN TO DIGITAL TWIN -->
  <!-- ============================================= -->
  <line x1="600" y1="690" x2="600" y2="720" stroke="#c9a84c" stroke-width="1.5" opacity="0.6"/>
  <polygon points="600,728 592,718 608,718" fill="#c9a84c" opacity="0.6"/>

  <!-- ============================================= -->
  <!-- DIGITAL TWIN / OPERATIONS CENTER -->
  <!-- ============================================= -->
  <rect x="320" y="730" width="560" height="50" fill="none" stroke="#4fc3f7" stroke-width="1.5"/>
  <line x1="320" y1="730" x2="345" y2="730" stroke="#4fc3f7" stroke-width="3"/>
  <line x1="320" y1="730" x2="320" y2="755" stroke="#4fc3f7" stroke-width="3"/>
  <line x1="880" y1="730" x2="855" y2="730" stroke="#4fc3f7" stroke-width="3"/>
  <line x1="880" y1="730" x2="880" y2="755" stroke="#4fc3f7" stroke-width="3"/>
  <line x1="320" y1="780" x2="345" y2="780" stroke="#4fc3f7" stroke-width="3"/>
  <line x1="320" y1="780" x2="320" y2="755" stroke="#4fc3f7" stroke-width="3"/>
  <line x1="880" y1="780" x2="855" y2="780" stroke="#4fc3f7" stroke-width="3"/>
  <line x1="880" y1="780" x2="880" y2="755" stroke="#4fc3f7" stroke-width="3"/>

  <text x="600" y="761" text-anchor="middle" fill="#4fc3f7" font-family="'Helvetica Neue', Arial, sans-serif" font-size="16" font-weight="700" letter-spacing="3">DIGITAL TWIN / OPERATIONS CENTER</text>

  <!-- Decorative pulse on operations center -->
  <line x1="340" y1="755" x2="345" y2="755" stroke="#4fc3f7" stroke-width="1" opacity="0.3"/>
  <line x1="348" y1="755" x2="350" y2="748" stroke="#4fc3f7" stroke-width="1" opacity="0.3"/>
  <line x1="350" y1="748" x2="352" y2="762" stroke="#4fc3f7" stroke-width="1" opacity="0.3"/>
  <line x1="352" y1="762" x2="354" y2="750" stroke="#4fc3f7" stroke-width="1" opacity="0.3"/>
  <line x1="354" y1="750" x2="356" y2="755" stroke="#4fc3f7" stroke-width="1" opacity="0.3"/>
  <line x1="356" y1="755" x2="365" y2="755" stroke="#4fc3f7" stroke-width="1" opacity="0.3"/>
</svg>