<svg xmlns="http://www.w3.org/2000/svg" viewBox="0 0 1200 800">
  <defs>
    <filter id="glow" x="-20%" y="-20%" width="140%" height="140%">
      <feGaussianBlur stdDeviation="2" result="blur"/>
      <feMerge>
        <feMergeNode in="blur"/>
        <feMergeNode in="SourceGraphic"/>
      </feMerge>
    </filter>
    <filter id="pulseGlow" x="-50%" y="-50%" width="200%" height="200%">
      <feGaussianBlur stdDeviation="4" result="blur"/>
      <feMerge>
        <feMergeNode in="blur"/>
        <feMergeNode in="SourceGraphic"/>
      </feMerge>
    </filter>
    <linearGradient id="arteryDown" x1="0%" y1="0%" x2="0%" y2="100%">
      <stop offset="0%" stop-color="#c9a84c" stop-opacity="0.8"/>
      <stop offset="50%" stop-color="#4fc3f7" stop-opacity="0.6"/>
      <stop offset="100%" stop-color="#c9a84c" stop-opacity="0.8"/>
    </linearGradient>
  </defs>

  <!-- Background -->
  <rect width="1200" height="800" fill="#0a1628"/>

  <!-- Subtle grid -->
  <g opacity="0.03" stroke="#4fc3f7">
    <line x1="0" y1="200" x2="1200" y2="200" stroke-width="0.5"/>
    <line x1="0" y1="400" x2="1200" y2="400" stroke-width="0.5"/>
    <line x1="0" y1="600" x2="1200" y2="600" stroke-width="0.5"/>
    <line x1="300" y1="0" x2="300" y2="800" stroke-width="0.5"/>
    <line x1="600" y1="0" x2="600" y2="800" stroke-width="0.5"/>
    <line x1="900" y1="0" x2="900" y2="800" stroke-width="0.5"/>
  </g>

  <!-- Left side label -->
  <text x="60" y="400" text-anchor="middle" fill="#c9a84c" font-family="'Helvetica Neue', Arial, sans-serif" font-size="18" font-weight="600" letter-spacing="4" transform="rotate(-90, 60, 400)">THE LIVING ORGANISM</text>
  <line x1="95" y1="120" x2="95" y2="680" stroke="#c9a84c" stroke-width="0.5" opacity="0.3"/>

  <!-- ============================================= -->
  <!-- LAYER 1: THE SKELETON - Physical Infrastructure -->
  <!-- ============================================= -->
  <rect x="140" y="100" width="940" height="180" fill="none" stroke="#c9a84c" stroke-width="1.5"/>
  <!-- Corner accents -->
  <line x1="140" y1="100" x2="165" y2="100" stroke="#c9a84c" stroke-width="3"/>
  <line x1="140" y1="100" x2="140" y2="125" stroke="#c9a84c" stroke-width="3"/>
  <line x1="1080" y1="100" x2="1055" y2="100" stroke="#c9a84c" stroke-width="3"/>
  <line x1="1080" y1="100" x2="1080" y2="125" stroke="#c9a84c" stroke-width="3"/>
  <line x1="140" y1="280" x2="165" y2="280" stroke="#c9a84c" stroke-width="3"/>
  <line x1="140" y1="280" x2="140" y2="255" stroke="#c9a84c" stroke-width="3"/>
  <line x1="1080" y1="280" x2="1055" y2="280" stroke="#c9a84c" stroke-width="3"/>
  <line x1="1080" y1="280" x2="1080" y2="255" stroke="#c9a84c" stroke-width="3"/>

  <!-- Layer 1 header -->
  <text x="170" y="135" fill="#c9a84c" font-family="'Helvetica Neue', Arial, sans-serif" font-size="20" font-weight="700" letter-spacing="3">THE SKELETON</text>
  <text x="430" y="135" fill="#8a9bb5" font-family="'Helvetica Neue', Arial, sans-serif" font-size="14" letter-spacing="1">Physical Infrastructure</text>

  <!-- Port icon -->
  <g transform="translate(220, 175)">
    <rect x="0" y="15" width="40" height="25" fill="none" stroke="#c9a84c" stroke-width="1" opacity="0.6"/>
    <line x1="5" y1="15" x2="5" y2="0" stroke="#c9a84c" stroke-width="1.5" opacity="0.6"/>
    <line x1="20" y1="15" x2="20" y2="-5" stroke="#c9a84c" stroke-width="1.5" opacity="0.6"/>
    <line x1="35" y1="15" x2="35" y2="5" stroke="#c9a84c" stroke-width="1.5" opacity="0.6"/>
    <line x1="-5" y1="40" x2="45" y2="40" stroke="#c9a84c" stroke-width="2" opacity="0.4"/>
    <text x="20" y="65" text-anchor="middle" fill="#8a9bb5" font-family="'Helvetica Neue', Arial, sans-serif" font-size="10" letter-spacing="1">PORTS</text>
  </g>

  <!-- Rail icon -->
  <g transform="translate(400, 175)">
    <line x1="0" y1="30" x2="50" y2="30" stroke="#c9a84c" stroke-width="2" opacity="0.6"/>
    <line x1="0" y1="20" x2="50" y2="20" stroke="#c9a84c" stroke-width="2" opacity="0.6"/>
    <line x1="10" y1="20" x2="10" y2="30" stroke="#c9a84c" stroke-width="1" opacity="0.4"/>
    <line x1="25" y1="20" x2="25" y2="30" stroke="#c9a84c" stroke-width="1" opacity="0.4"/>
    <line x1="40" y1="20" x2="40" y2="30" stroke="#c9a84c" stroke-width="1" opacity="0.4"/>
    <rect x="5" y="5" width="30" height="15" fill="none" stroke="#c9a84c" stroke-width="1" opacity="0.6"/>
    <text x="25" y="65" text-anchor="middle" fill="#8a9bb5" font-family="'Helvetica Neue', Arial, sans-serif" font-size="10" letter-spacing="1">RAIL</text>
  </g>

  <!-- Pipeline icon -->
  <g transform="translate(580, 175)">
    <line x1="0" y1="15" x2="50" y2="15" stroke="#c9a84c" stroke-width="3" opacity="0.5"/>
    <line x1="0" y1="25" x2="50" y2="25" stroke="#c9a84c" stroke-width="3" opacity="0.5"/>
    <circle cx="15" cy="20" r="3" fill="#c9a84c" opacity="0.4"/>
    <circle cx="35" cy="20" r="3" fill="#c9a84c" opacity="0.4"/>
    <text x="25" y="65" text-anchor="middle" fill="#8a9bb5" font-family="'Helvetica Neue', Arial, sans-serif" font-size="10" letter-spacing="1">PIPELINES</text>
  </g>

  <!-- Cable icon -->
  <g transform="translate(760, 175)">
    <path d="M 0,25 Q 12,5 25,25 Q 38,45 50,25" fill="none" stroke="#c9a84c" stroke-width="1.5" opacity="0.6"/>
    <path d="M 0,20 Q 12,0 25,20 Q 38,40 50,20" fill="none" stroke="#c9a84c" stroke-width="1" opacity="0.3"/>
    <text x="25" y="65" text-anchor="middle" fill="#8a9bb5" font-family="'Helvetica Neue', Arial, sans-serif" font-size="10" letter-spacing="1">CABLES</text>
  </g>

  <!-- Energy icon -->
  <g transform="translate(920, 175)">
    <polygon points="20,0 10,18 22,18 12,38" fill="none" stroke="#c9a84c" stroke-width="1.5" opacity="0.6"/>
    <text x="16" y="65" text-anchor="middle" fill="#8a9bb5" font-family="'Helvetica Neue', Arial, sans-serif" font-size="10" letter-spacing="1">ENERGY</text>
  </g>

  <!-- ============================================= -->
  <!-- ARTERIES connecting Layer 1 to Layer 2 -->
  <!-- ============================================= -->
  <g>
    <!-- Left artery -->
    <line x1="400" y1="280" x2="400" y2="320" stroke="#c9a84c" stroke-width="1" stroke-dasharray="4,6" opacity="0.5"/>
    <circle cx="400" cy="290" r="2" fill="#c9a84c" opacity="0.7"/>
    <circle cx="400" cy="304" r="2" fill="#4fc3f7" opacity="0.5"/>
    <circle cx="400" cy="316" r="2" fill="#c9a84c" opacity="0.3"/>

    <!-- Center artery -->
    <line x1="610" y1="280" x2="610" y2="320" stroke="#4fc3f7" stroke-width="1" stroke-dasharray="4,6" opacity="0.5"/>
    <circle cx="610" cy="288" r="2" fill="#4fc3f7" opacity="0.7"/>
    <circle cx="610" cy="302" r="2" fill="#c9a84c" opacity="0.5"/>
    <circle cx="610" cy="314" r="2" fill="#4fc3f7" opacity="0.3"/>

    <!-- Right artery -->
    <line x1="820" y1="280" x2="820" y2="320" stroke="#c9a84c" stroke-width="1" stroke-dasharray="4,6" opacity="0.5"/>
    <circle cx="820" cy="292" r="2" fill="#c9a84c" opacity="0.7"/>
    <circle cx="820" cy="306" r="2" fill="#4fc3f7" opacity="0.5"/>
    <circle cx="820" cy="318" r="2" fill="#c9a84c" opacity="0.3"/>
  </g>

  <!-- ============================================= -->
  <!-- LAYER 2: THE NERVOUS SYSTEM - ALIGN Intelligence -->
  <!-- ============================================= -->
  <rect x="140" y="320" width="940" height="180" fill="none" stroke="#4fc3f7" stroke-width="1.5"/>
  <!-- Corner accents -->
  <line x1="140" y1="320" x2="165" y2="320" stroke="#4fc3f7" stroke-width="3"/>
  <line x1="140" y1="320" x2="140" y2="345" stroke="#4fc3f7" stroke-width="3"/>
  <line x1="1080" y1="320" x2="1055" y2="320" stroke="#4fc3f7" stroke-width="3"/>
  <line x1="1080" y1="320" x2="1080" y2="345" stroke="#4fc3f7" stroke-width="3"/>
  <line x1="140" y1="500" x2="165" y2="500" stroke="#4fc3f7" stroke-width="3"/>
  <line x1="140" y1="500" x2="140" y2="475" stroke="#4fc3f7" stroke-width="3"/>
  <line x1="1080" y1="500" x2="1055" y2="500" stroke="#4fc3f7" stroke-width="3"/>
  <line x1="1080" y1="500" x2="1080" y2="475" stroke="#4fc3f7" stroke-width="3"/>

  <!-- Layer 2 header -->
  <text x="170" y="355" fill="#4fc3f7" font-family="'Helvetica Neue', Arial, sans-serif" font-size="20" font-weight="700" letter-spacing="3">THE NERVOUS SYSTEM</text>
  <text x="530" y="355" fill="#8a9bb5" font-family="'Helvetica Neue', Arial, sans-serif" font-size="14" letter-spacing="1">ALIGN Intelligence Layer</text>

  <!-- Pulse/Signal graphics -->
  <!-- Signal wave 1 -->
  <g transform="translate(200, 400)">
    <path d="M 0,20 L 20,20 L 25,5 L 30,35 L 35,10 L 40,30 L 45,15 L 50,20 L 70,20" fill="none" stroke="#4fc3f7" stroke-width="1.5" filter="url(#glow)" opacity="0.7"/>
    <text x="35" y="60" text-anchor="middle" fill="#8a9bb5" font-family="'Helvetica Neue', Arial, sans-serif" font-size="10" letter-spacing="1">HUMINT</text>
  </g>

  <!-- Signal wave 2 -->
  <g transform="translate(400, 400)">
    <path d="M 0,20 L 15,20 L 18,0 L 22,40 L 28,8 L 32,32 L 36,12 L 42,28 L 46,20 L 70,20" fill="none" stroke="#4fc3f7" stroke-width="1.5" filter="url(#glow)" opacity="0.7"/>
    <text x="35" y="60" text-anchor="middle" fill="#8a9bb5" font-family="'Helvetica Neue', Arial, sans-serif" font-size="10" letter-spacing="1">SIGINT</text>
  </g>

  <!-- Network node cluster -->
  <g transform="translate(600, 395)">
    <circle cx="25" cy="20" r="8" fill="none" stroke="#4fc3f7" stroke-width="1" opacity="0.6"/>
    <circle cx="55" cy="10" r="6" fill="none" stroke="#4fc3f7" stroke-width="1" opacity="0.4"/>
    <circle cx="60" cy="35" r="7" fill="none" stroke="#4fc3f7" stroke-width="1" opacity="0.5"/>
    <line x1="33" y1="18" x2="49" y2="12" stroke="#4fc3f7" stroke-width="0.5" opacity="0.4"/>
    <line x1="33" y1="24" x2="53" y2="32" stroke="#4fc3f7" stroke-width="0.5" opacity="0.4"/>
    <line x1="55" y1="16" x2="58" y2="28" stroke="#4fc3f7" stroke-width="0.5" opacity="0.3"/>
    <circle cx="25" cy="20" r="3" fill="#4fc3f7" opacity="0.5"/>
    <circle cx="55" cy="10" r="2" fill="#4fc3f7" opacity="0.3"/>
    <circle cx="60" cy="35" r="2.5" fill="#4fc3f7" opacity="0.4"/>
    <text x="42" y="65" text-anchor="middle" fill="#8a9bb5" font-family="'Helvetica Neue', Arial, sans-serif" font-size="10" letter-spacing="1">AI AGENTS</text>
  </g>

  <!-- Data flow indicator -->
  <g transform="translate(800, 400)">
    <rect x="0" y="5" width="60" height="30" fill="none" stroke="#4fc3f7" stroke-width="1" opacity="0.4"/>
    <line x1="10" y1="15" x2="50" y2="15" stroke="#4fc3f7" stroke-width="0.5" opacity="0.5"/>
    <line x1="10" y1="22" x2="40" y2="22" stroke="#4fc3f7" stroke-width="0.5" opacity="0.3"/>
    <line x1="10" y1="29" x2="45" y2="29" stroke="#4fc3f7" stroke-width="0.5" opacity="0.4"/>
    <text x="30" y="60" text-anchor="middle" fill="#8a9bb5" font-family="'Helvetica Neue', Arial, sans-serif" font-size="10" letter-spacing="1">ANALYTICS</text>
  </g>

  <!-- Digital twin icon -->
  <g transform="translate(940, 395)">
    <rect x="0" y="5" width="35" height="30" fill="none" stroke="#4fc3f7" stroke-width="1" opacity="0.5"/>
    <rect x="5" y="10" width="35" height="30" fill="none" stroke="#4fc3f7" stroke-width="0.5" opacity="0.3"/>
    <text x="20" y="60" text-anchor="middle" fill="#8a9bb5" font-family="'Helvetica Neue', Arial, sans-serif" font-size="10" letter-spacing="1">TWIN</text>
  </g>

  <!-- ============================================= -->
  <!-- ARTERIES connecting Layer 2 to Layer 3 -->
  <!-- ============================================= -->
  <g>
    <line x1="400" y1="500" x2="400" y2="540" stroke="#c9a84c" stroke-width="1" stroke-dasharray="4,6" opacity="0.5"/>
    <circle cx="400" cy="508" r="2" fill="#4fc3f7" opacity="0.7"/>
    <circle cx="400" cy="522" r="2" fill="#c9a84c" opacity="0.5"/>
    <circle cx="400" cy="534" r="2" fill="#4fc3f7" opacity="0.3"/>

    <line x1="610" y1="500" x2="610" y2="540" stroke="#c9a84c" stroke-width="1" stroke-dasharray="4,6" opacity="0.5"/>
    <circle cx="610" cy="506" r="2" fill="#c9a84c" opacity="0.7"/>
    <circle cx="610" cy="520" r="2" fill="#4fc3f7" opacity="0.5"/>
    <circle cx="610" cy="532" r="2" fill="#c9a84c" opacity="0.3"/>

    <line x1="820" y1="500" x2="820" y2="540" stroke="#4fc3f7" stroke-width="1" stroke-dasharray="4,6" opacity="0.5"/>
    <circle cx="820" cy="510" r="2" fill="#4fc3f7" opacity="0.7"/>
    <circle cx="820" cy="524" r="2" fill="#c9a84c" opacity="0.5"/>
    <circle cx="820" cy="536" r="2" fill="#4fc3f7" opacity="0.3"/>
  </g>

  <!-- ============================================= -->
  <!-- LAYER 3: THE MUSCLE - Economic Execution -->
  <!-- ============================================= -->
  <rect x="140" y="540" width="940" height="180" fill="none" stroke="#c9a84c" stroke-width="1.5"/>
  <!-- Corner accents -->
  <line x1="140" y1="540" x2="165" y2="540" stroke="#c9a84c" stroke-width="3"/>
  <line x1="140" y1="540" x2="140" y2="565" stroke="#c9a84c" stroke-width="3"/>
  <line x1="1080" y1="540" x2="1055" y2="540" stroke="#c9a84c" stroke-width="3"/>
  <line x1="1080" y1="540" x2="1080" y2="565" stroke="#c9a84c" stroke-width="3"/>
  <line x1="140" y1="720" x2="165" y2="720" stroke="#c9a84c" stroke-width="3"/>
  <line x1="140" y1="720" x2="140" y2="695" stroke="#c9a84c" stroke-width="3"/>
  <line x1="1080" y1="720" x2="1055" y2="720" stroke="#c9a84c" stroke-width="3"/>
  <line x1="1080" y1="720" x2="1080" y2="695" stroke="#c9a84c" stroke-width="3"/>

  <!-- Layer 3 header -->
  <text x="170" y="575" fill="#c9a84c" font-family="'Helvetica Neue', Arial, sans-serif" font-size="20" font-weight="700" letter-spacing="3">THE MUSCLE</text>
  <text x="385" y="575" fill="#8a9bb5" font-family="'Helvetica Neue', Arial, sans-serif" font-size="14" letter-spacing="1">Economic Execution</text>

  <!-- Gear icon 1 -->
  <g transform="translate(220, 610)">
    <circle cx="20" cy="20" r="15" fill="none" stroke="#c9a84c" stroke-width="1" opacity="0.5"/>
    <circle cx="20" cy="20" r="8" fill="none" stroke="#c9a84c" stroke-width="1.5" opacity="0.6"/>
    <line x1="20" y1="2" x2="20" y2="8" stroke="#c9a84c" stroke-width="2" opacity="0.5"/>
    <line x1="20" y1="32" x2="20" y2="38" stroke="#c9a84c" stroke-width="2" opacity="0.5"/>
    <line x1="2" y1="20" x2="8" y2="20" stroke="#c9a84c" stroke-width="2" opacity="0.5"/>
    <line x1="32" y1="20" x2="38" y2="20" stroke="#c9a84c" stroke-width="2" opacity="0.5"/>
    <text x="20" y="65" text-anchor="middle" fill="#8a9bb5" font-family="'Helvetica Neue', Arial, sans-serif" font-size="10" letter-spacing="1">OPERATIONS</text>
  </g>

  <!-- Finance icon -->
  <g transform="translate(420, 610)">
    <line x1="0" y1="35" x2="60" y2="35" stroke="#c9a84c" stroke-width="1" opacity="0.4"/>
    <rect x="5" y="20" width="8" height="15" fill="#c9a84c" opacity="0.3"/>
    <rect x="17" y="12" width="8" height="23" fill="#c9a84c" opacity="0.4"/>
    <rect x="29" y="8" width="8" height="27" fill="#c9a84c" opacity="0.5"/>
    <rect x="41" y="3" width="8" height="32" fill="#c9a84c" opacity="0.6"/>
    <text x="30" y="65" text-anchor="middle" fill="#8a9bb5" font-family="'Helvetica Neue', Arial, sans-serif" font-size="10" letter-spacing="1">CAPITAL</text>
  </g>

  <!-- Deal flow icon -->
  <g transform="translate(620, 610)">
    <rect x="0" y="5" width="50" height="30" fill="none" stroke="#c9a84c" stroke-width="1" opacity="0.5"/>
    <line x1="8" y1="14" x2="42" y2="14" stroke="#c9a84c" stroke-width="0.5" opacity="0.5"/>
    <line x1="8" y1="21" x2="35" y2="21" stroke="#c9a84c" stroke-width="0.5" opacity="0.4"/>
    <line x1="8" y1="28" x2="38" y2="28" stroke="#c9a84c" stroke-width="0.5" opacity="0.3"/>
    <text x="25" y="65" text-anchor="middle" fill="#8a9bb5" font-family="'Helvetica Neue', Arial, sans-serif" font-size="10" letter-spacing="1">DEAL FLOW</text>
  </g>

  <!-- JV/SPV icon -->
  <g transform="translate(820, 610)">
    <circle cx="15" cy="15" r="12" fill="none" stroke="#c9a84c" stroke-width="1" opacity="0.5"/>
    <circle cx="35" cy="15" r="12" fill="none" stroke="#c9a84c" stroke-width="1" opacity="0.5"/>
    <text x="25" y="65" text-anchor="middle" fill="#8a9bb5" font-family="'Helvetica Neue', Arial, sans-serif" font-size="10" letter-spacing="1">JV / SPV</text>
  </g>

  <!-- Scale arrow -->
  <g transform="translate(960, 610)">
    <line x1="0" y1="20" x2="50" y2="20" stroke="#c9a84c" stroke-width="1.5" opacity="0.6"/>
    <polygon points="50,20 42,14 42,26" fill="#c9a84c" opacity="0.6"/>
    <text x="25" y="65" text-anchor="middle" fill="#8a9bb5" font-family="'Helvetica Neue', Arial, sans-serif" font-size="10" letter-spacing="1">SCALE</text>
  </g>

  <!-- Bottom credit -->
  <text x="600" y="775" text-anchor="middle" fill="#8a9bb5" font-family="'Helvetica Neue', Arial, sans-serif" font-size="11" letter-spacing="2" opacity="0.4">ALIGN ADVISORY GROUP</text>
</svg>